#!OML:ASF X:\für Bonn\!DataBase\2005_08_10_Bjorn_Final\c3d\bjorn.ASF
:FULLY-SPECIFIED
:DEGREES
275
root -5.20746 18.2749 9.87465 171.416 47.8877 -542.622
lowerback 9.47804 -3.61821 7.37359
upperback 18.1384 -2.29155 0.675767
thorax 14.5415 0.875636 -3.08946
lowerneck 4.38911 5.31763 2.05928
upperneck -9.0175 6.5402 -12.0949
head -2.90475 3.82472 -4.23413
rclavicle 1.51076e-014 3.33958e-014
rhumerus -15.4908 -17.5781 -83.8093
rradius 67.4711
rwrist 3.42651
rhand -26.8249 19.4786
rfingers 7.12502
rthumb -0.250955 -10.501
lclavicle 1.51076e-014 3.33958e-014
lhumerus -17.8507 1.05892 83.2205
lradius 57.379
lwrist -19.7105
lhand -50.0037 -18.2867
lfingers 7.12502
lthumb -22.5927 10.4112
rfemur -15.8686 -5.2058 14.3461
rtibia 48.3953
rfoot -23.074 10.0952
rtoes -14.5815
lfemur -27.2786 14.6016 -7.23536
ltibia 96.896
lfoot -1.80369 -1.75974
ltoes -19.0545
276
root -5.1533 18.2952 9.8586 171.374 47.7477 -542.557
lowerback 9.45641 -3.49794 7.31421
upperback 18.1133 -2.1323 0.67711
thorax 14.542 0.944246 -3.0533
lowerneck 4.28551 5.25293 1.95759
upperneck -8.90348 6.46557 -11.9382
head -2.86841 3.77645 -4.16148
rclavicle 3.10104e-014 1.59028e-014
rhumerus -15.4098 -17.5973 -83.7357
rradius 67.288
rwrist 3.42523
rhand -26.7303 19.5481
rfingers 7.12502
rthumb -0.159565 -10.4316
lclavicle 3.10104e-014 1.59028e-014
lhumerus -18.0406 1.12654 83.1674
lradius 57.4875
lwrist -19.4726
lhand -50.0577 -18.3183
lfingers 7.12502
lthumb -22.6444 10.3733
rfemur -15.3262 -5.13499 14.4712
rtibia 47.9802
rfoot -23.1733 9.81638
rtoes -14.5545
lfemur -28.2766 14.9504 -7.36998
ltibia 97.2798
lfoot -1.95292 -1.73482
ltoes -19.0889
277
root -5.09984 18.3161 9.84129 171.333 47.6125 -542.499
lowerback 9.41497 -3.38301 7.25365
upperback 18.0863 -1.98333 0.669372
thorax 14.5502 1.00799 -3.02724
lowerneck 4.1656 5.19069 1.83294
upperneck -8.74914 6.39631 -11.7666
head -2.81812 3.72884 -4.07919
rclavicle -8.98507e-014 1.74931e-014
rhumerus -15.3225 -17.5751 -83.6713
rradius 67.0988
rwrist 3.36032
rhand -26.6446 19.6334
rfingers 7.12502
rthumb -0.0768741 -10.3463
lclavicle -8.98507e-014 1.74931e-014
lhumerus -18.2041 1.26764 83.1154
lradius 57.5456
lwrist -19.3716
lhand -50.0938 -18.3293
lfingers 7.12502
lthumb -22.6791 10.358
rfemur -14.7846 -5.09257 14.585
rtibia 47.5513
rfoot -23.2827 9.55663
rtoes -14.6822
lfemur -29.2711 15.269 -7.51978
ltibia 97.5844
lfoot -2.04112 -1.72508
ltoes -19.2851
278
root -5.04691 18.3388 9.82349 171.276 47.4872 -542.438
lowerback 9.4037 -3.27126 7.18149
upperback 18.0582 -1.83502 0.661894
thorax 14.5384 1.06932 -2.99391
lowerneck 4.06265 5.13892 1.67399
upperneck -8.60554 6.33877 -11.5779
head -2.77469 3.68829 -3.98761
rclavicle 5.64548e-014 -9.54166e-015
rhumerus -15.2478 -17.5237 -83.607
rradius 66.9239
rwrist 3.27487
rhand -26.5091 19.6899
rfingers 7.12502
rthumb 0.0540259 -10.2899
lclavicle 5.64548e-014 -9.54166e-015
lhumerus -18.3753 1.4029 83.0489
lradius 57.6737
lwrist -19.175
lhand -50.0791 -18.3123
lfingers 7.12502
lthumb -22.665 10.3768
rfemur -14.2208 -5.00347 14.7089
rtibia 47.1059
rfoot -23.3672 9.25852
rtoes -14.6311
lfemur -30.2292 15.5637 -7.65849
ltibia 97.8065
lfoot -2.12782 -1.70864
ltoes -19.7793
279
root -4.99419 18.3614 9.80547 171.249 47.3474 -542.374
lowerback 9.3632 -3.15553 7.12914
upperback 18.0187 -1.6857 0.631902
thorax 14.5288 1.13419 -2.99762
lowerneck 3.95532 5.07566 1.55639
upperneck -8.19511 6.31609 -11.0523
head -2.9489 3.62166 -4.22237
rclavicle 2.46493e-014 2.70347e-014
rhumerus -15.1845 -17.5094 -83.6047
rradius 66.7699
rwrist 3.21102
rhand -26.4275 19.7657
rfingers 7.12502
rthumb 0.132856 -10.214
lclavicle 2.46493e-014 2.70347e-014
lhumerus -18.5295 1.5659 82.9618
lradius 57.7872
lwrist -19.0649
lhand -50.0526 -18.241
lfingers 7.12502
lthumb -22.6396 10.4512
rfemur -13.6705 -4.92847 14.8357
rtibia 46.6389
rfoot -23.4456 8.96061
rtoes -14.5936
lfemur -31.2306 15.8204 -7.8128
ltibia 97.9655
lfoot -2.18882 -1.63985
ltoes -20.2013
280
root -4.94228 18.3835 9.78742 171.231 47.2035 -542.284
lowerback 9.3444 -3.04649 7.07816
upperback 17.9671 -1.54627 0.619144
thorax 14.4893 1.19069 -2.9831
lowerneck 3.92151 5.01386 1.41169
upperneck -8.06896 6.24079 -10.864
head -2.91398 3.57489 -4.11907
rclavicle -1.05753e-013 4.05521e-014
rhumerus -15.1453 -17.4889 -83.5758
rradius 66.621
rwrist 3.17179
rhand -26.3085 19.7964
rfingers 7.12502
rthumb 0.247738 -10.1832
lclavicle -1.05753e-013 4.05521e-014
lhumerus -18.7 1.73255 82.8843
lradius 57.9078
lwrist -18.9394
lhand -49.9875 -18.124
lfingers 7.12502
lthumb -22.5771 10.5757
rfemur -13.1087 -4.8655 14.9838
rtibia 46.1602
rfoot -23.516 8.64119
rtoes -14.6132
lfemur -32.2057 16.0354 -7.94628
ltibia 98.0374
lfoot -2.2724 -1.51884
ltoes -20.5187
